<svg xmlns="http://www.w3.org/2000/svg" xmlns:xlink="http://www.w3.org/1999/xlink" width="106" zoomAndPan="magnify" viewBox="0 0 79.5 78.749998" height="105" preserveAspectRatio="xMidYMid meet" version="1.0"><defs><g/><clipPath id="33478e4b75"><path d="M 0 3.78125 L 79.003906 3.78125 L 79.003906 75.003906 L 0 75.003906 Z M 0 3.78125 " clip-rule="nonzero"/></clipPath></defs><g clip-path="url(#33478e4b75)"><path fill="#ffe342" d="M 58.535156 6.652344 C 58.523438 6.691406 58.554688 6.734375 58.566406 6.773438 C 58.589844 6.753906 58.632812 6.734375 58.632812 6.691406 C 58.640625 6.652344 58.609375 6.628906 58.597656 6.5625 C 58.578125 6.605469 58.535156 6.628906 58.535156 6.652344 Z M 18.195312 66.855469 C 18.195312 66.75 18.117188 66.707031 18.023438 66.730469 C 18.003906 66.730469 17.972656 66.75 17.972656 66.75 C 17.980469 66.773438 17.992188 66.835938 18.015625 66.835938 C 18.078125 66.835938 18.140625 66.835938 18.203125 66.835938 Z M 1.460938 41.160156 C 1.4375 41.183594 1.40625 41.203125 1.398438 41.246094 C 1.398438 41.265625 1.417969 41.308594 1.429688 41.375 C 1.460938 41.328125 1.480469 41.308594 1.5 41.289062 C 1.492188 41.246094 1.480469 41.203125 1.460938 41.160156 Z M 52.019531 6.25 C 52.042969 6.25 52.0625 6.207031 52.070312 6.1875 C 52.070312 6.164062 52.042969 6.144531 52.03125 6.144531 C 51.964844 6.144531 51.914062 6.164062 51.796875 6.1875 C 51.914062 6.226562 51.964844 6.25 52.019531 6.25 Z M 72.539062 29.476562 C 72.53125 29.433594 72.484375 29.410156 72.453125 29.410156 C 72.453125 29.410156 72.421875 29.433594 72.421875 29.453125 C 72.414062 29.515625 72.421875 29.601562 72.421875 29.664062 C 72.433594 29.6875 72.453125 29.726562 72.476562 29.769531 C 72.496094 29.726562 72.519531 29.707031 72.539062 29.664062 C 72.539062 29.601562 72.550781 29.539062 72.539062 29.476562 Z M 16.820312 65.867188 C 16.839844 65.949219 16.839844 66.035156 16.871094 66.117188 C 16.882812 66.140625 16.976562 66.117188 17.039062 66.117188 C 17.027344 66.097656 17.027344 66.035156 17.007812 66.011719 C 16.945312 65.96875 16.871094 65.929688 16.796875 65.882812 Z M 78.683594 39.832031 C 78.652344 39.8125 78.609375 39.789062 78.578125 39.769531 C 78.527344 40 78.527344 40 78.8125 39.980469 C 78.738281 39.894531 78.714844 39.875 78.683594 39.832031 Z M 8.738281 62.761719 C 8.757812 62.742188 8.738281 62.679688 8.714844 62.636719 C 8.714844 62.617188 8.640625 62.617188 8.621094 62.636719 C 8.566406 62.679688 8.539062 62.722656 8.503906 62.785156 C 8.601562 62.867188 8.671875 62.824219 8.738281 62.761719 Z M 3.375 23.738281 C 3.375 23.90625 3.269531 24.074219 3.414062 24.242188 C 3.480469 24.054688 3.5 23.90625 3.375 23.738281 Z M 2.570312 31.121094 C 2.667969 31.035156 2.824219 30.992188 2.707031 30.761719 C 2.496094 30.972656 2.496094 30.972656 2.570312 31.121094 Z M 18.203125 66.835938 C 18.214844 66.917969 18.214844 66.980469 18.214844 67.046875 C 18.332031 67.109375 18.449219 67.195312 18.5625 67.257812 C 18.636719 67.300781 18.722656 67.214844 18.734375 67.066406 C 18.554688 67.003906 18.425781 66.792969 18.195312 66.855469 Z M 37.707031 74.578125 C 37.929688 74.578125 38.132812 74.640625 38.40625 74.515625 C 38.015625 74.449219 37.792969 74.089844 37.359375 74.21875 C 37.507812 74.367188 37.613281 74.472656 37.707031 74.578125 Z M 21.007812 68.878906 C 21.15625 69.027344 21.335938 69.113281 21.535156 69.175781 C 21.566406 69.199219 21.628906 69.175781 21.652344 69.132812 C 21.664062 69.113281 21.671875 69.027344 21.652344 69.007812 C 21.460938 68.859375 21.269531 68.691406 21.070312 68.542969 C 20.953125 68.480469 20.824219 68.4375 20.699219 68.398438 C 20.667969 68.375 20.625 68.417969 20.542969 68.460938 C 20.710938 68.605469 20.871094 68.734375 21.007812 68.878906 Z M 4.980469 60.230469 C 4.949219 60.210938 4.253906 60.441406 4.167969 60.484375 C 4.515625 60.484375 4.8125 60.464844 5.109375 60.484375 C 5.375 60.484375 5.59375 60.421875 5.839844 60.253906 C 5.53125 60.191406 5.257812 60.230469 4.980469 60.230469 Z M 22.066406 69.515625 C 22.210938 69.621094 22.445312 69.660156 22.382812 69.933594 C 22.382812 69.957031 22.457031 70.019531 22.476562 70.019531 C 22.617188 69.957031 22.761719 69.894531 22.898438 69.832031 C 22.910156 69.832031 22.921875 69.746094 22.910156 69.726562 C 22.816406 69.515625 22.605469 69.453125 22.433594 69.367188 C 22.296875 69.300781 22.128906 69.300781 21.980469 69.386719 C 22.011719 69.429688 22.03125 69.472656 22.066406 69.515625 Z M 38.46875 74.703125 C 38.683594 74.722656 38.820312 74.746094 38.957031 74.746094 C 39.117188 74.746094 39.285156 74.765625 39.433594 74.746094 C 39.601562 74.703125 39.738281 74.894531 39.875 74.789062 C 40.054688 74.683594 40.171875 74.851562 40.320312 74.875 C 40.363281 74.875 40.40625 74.875 40.457031 74.875 C 40.933594 74.875 41.421875 74.875 41.90625 74.875 C 41.960938 74.851562 42.015625 74.832031 42.089844 74.808594 C 42.023438 74.746094 41.992188 74.660156 41.929688 74.640625 C 41.738281 74.578125 41.546875 74.449219 41.359375 74.472656 C 41.007812 74.492188 40.679688 74.367188 40.351562 74.304688 C 40.027344 74.21875 39.695312 74.175781 39.324219 74.175781 C 39.042969 74.367188 38.785156 74.515625 38.46875 74.703125 Z M 46.128906 74.324219 C 45.851562 74.515625 45.546875 74.449219 45.25 74.472656 C 45.046875 74.472656 44.859375 74.472656 44.65625 74.554688 C 44.476562 74.640625 44.257812 74.617188 44.054688 74.535156 C 43.960938 74.492188 43.8125 74.449219 43.726562 74.492188 C 43.367188 74.660156 43.015625 74.597656 42.667969 74.492188 C 42.648438 74.472656 42.582031 74.515625 42.5625 74.535156 C 42.542969 74.578125 42.542969 74.640625 42.5625 74.660156 C 42.667969 74.789062 42.773438 74.894531 42.878906 75 C 43.207031 75 43.503906 75 43.800781 75 C 43.917969 75 44.054688 75.019531 44.140625 74.976562 C 44.328125 74.851562 44.554688 74.851562 44.742188 74.875 C 45.164062 74.9375 45.546875 74.703125 45.957031 74.722656 C 46 74.722656 46.054688 74.722656 46.085938 74.703125 C 46.308594 74.535156 46.5625 74.492188 46.890625 74.367188 C 46.582031 74.28125 46.351562 74.34375 46.128906 74.324219 Z M 43.472656 5.636719 C 43.355469 5.550781 43.238281 5.53125 43.113281 5.636719 C 43.238281 5.699219 43.355469 5.761719 43.472656 5.636719 Z M 27.257812 8.546875 C 27.300781 8.589844 27.320312 8.632812 27.351562 8.652344 C 27.425781 8.738281 27.5 8.78125 27.597656 8.71875 C 27.679688 8.652344 27.660156 8.546875 27.640625 8.460938 C 27.617188 8.335938 27.492188 8.316406 27.375 8.398438 C 27.332031 8.445312 27.300781 8.507812 27.257812 8.546875 Z M 24.507812 8.992188 C 24.359375 8.886719 24.285156 8.800781 24.191406 8.757812 C 24.117188 8.738281 24.019531 8.78125 23.949219 8.820312 C 23.914062 8.820312 23.902344 8.90625 23.902344 8.925781 C 23.9375 9.03125 24.03125 9.054688 24.117188 9.03125 C 24.222656 9.03125 24.328125 9.011719 24.507812 8.992188 Z M 22.617188 9.265625 C 22.550781 9.03125 22.390625 9.011719 22.203125 9.03125 C 22.128906 9.054688 22.074219 9.09375 22.09375 9.179688 C 22.105469 9.222656 22.140625 9.285156 22.160156 9.285156 C 22.320312 9.328125 22.464844 9.351562 22.617188 9.265625 Z M 4.105469 28.253906 C 4.207031 28.019531 4.335938 27.828125 4.433594 27.597656 C 4.464844 27.535156 4.433594 27.429688 4.398438 27.34375 C 4.347656 27.261719 4.253906 27.28125 4.15625 27.28125 C 4.136719 27.300781 4.117188 27.300781 4.09375 27.300781 C 3.796875 27.871094 3.796875 27.957031 4.105469 28.253906 Z M 26.527344 8 C 26.441406 7.894531 26.347656 7.808594 26.199219 7.789062 C 25.839844 7.703125 25.535156 7.871094 25.21875 7.980469 C 25.183594 7.980469 25.164062 8.042969 25.175781 8.085938 C 25.183594 8.125 25.226562 8.1875 25.246094 8.1875 C 25.34375 8.1875 25.449219 8.210938 25.511719 8.167969 C 25.652344 8.085938 25.746094 8.0625 25.894531 8.148438 C 25.976562 8.1875 26.117188 8.1875 26.222656 8.148438 C 26.328125 8.125 26.421875 8.0625 26.527344 8 Z M 13.773438 62.890625 C 13.6875 63.164062 13.847656 63.289062 14.003906 63.417969 C 14.171875 63.566406 14.320312 63.566406 14.480469 63.417969 C 14.578125 63.332031 14.714844 63.25 14.714844 63.082031 C 14.648438 62.890625 14.460938 62.847656 14.3125 62.761719 C 14.28125 62.742188 14.226562 62.742188 14.195312 62.742188 C 14.046875 62.804688 13.898438 62.847656 13.773438 62.890625 Z M 49.144531 70.167969 C 49.300781 70.167969 49.417969 70.191406 49.480469 70.148438 C 49.714844 70 50.03125 70.105469 50.253906 69.914062 C 50.496094 69.933594 50.695312 69.726562 50.972656 69.765625 C 51.132812 69.789062 51.214844 69.640625 51.269531 69.515625 C 51.277344 69.472656 51.214844 69.367188 51.183594 69.367188 C 51.023438 69.34375 50.875 69.324219 50.71875 69.40625 C 50.539062 69.492188 50.347656 69.578125 50.148438 69.597656 C 49.9375 69.640625 49.785156 69.789062 49.585938 69.832031 C 49.398438 69.894531 49.183594 69.894531 48.992188 69.933594 C 48.972656 69.933594 48.941406 70 48.941406 70.039062 C 48.941406 70.085938 48.972656 70.125 49.003906 70.148438 C 49.066406 70.167969 49.144531 70.167969 49.144531 70.167969 Z M 22.390625 8.125 C 22.699219 8.484375 23.175781 8.546875 23.578125 8.738281 C 23.609375 8.757812 23.671875 8.738281 23.703125 8.71875 C 23.820312 8.632812 23.949219 8.613281 24.09375 8.613281 C 24.167969 8.589844 24.199219 8.445312 24.148438 8.378906 C 23.902344 8.085938 23.609375 7.894531 23.207031 7.914062 C 23.050781 7.9375 22.878906 7.914062 22.71875 7.914062 C 22.5625 7.914062 22.464844 8 22.390625 8.125 Z M 52.007812 8.757812 C 52.050781 8.695312 52.105469 8.652344 52.09375 8.632812 C 52.019531 8.316406 51.863281 8.0625 51.53125 7.914062 C 51.246094 7.789062 50.960938 7.640625 50.675781 7.492188 C 50.390625 7.367188 50.105469 7.238281 49.808594 7.113281 C 49.734375 7.09375 49.628906 7.113281 49.542969 7.113281 C 49.503906 7.113281 49.460938 7.261719 49.480469 7.300781 C 49.542969 7.367188 49.605469 7.453125 49.683594 7.492188 C 50.191406 7.726562 50.71875 7.9375 51.246094 8.125 C 51.277344 8.230469 51.300781 8.335938 51.332031 8.421875 C 51.449219 8.484375 51.542969 8.546875 51.636719 8.613281 C 51.765625 8.652344 51.890625 8.695312 52.007812 8.757812 Z M 52.113281 69.40625 C 52.304688 69.558594 52.421875 69.34375 52.570312 69.34375 C 52.75 69.34375 52.90625 69.28125 53.078125 69.175781 C 53.308594 69.007812 53.59375 68.925781 53.871094 68.816406 C 53.988281 68.773438 54.132812 68.773438 54.304688 68.753906 C 54.503906 68.542969 54.75 68.332031 55.066406 68.226562 C 55.234375 68.164062 55.351562 68.039062 55.425781 67.867188 C 55.382812 67.847656 55.328125 67.804688 55.296875 67.828125 C 55.03125 67.933594 54.738281 68.015625 54.472656 68.121094 C 54.144531 68.246094 53.785156 68.308594 53.457031 68.460938 C 53.097656 68.628906 52.835938 68.902344 52.484375 69.09375 C 52.347656 69.15625 52.242188 69.28125 52.113281 69.40625 Z M 4.105469 41.5625 C 4.082031 41.582031 4.0625 41.582031 4.050781 41.605469 C 4.039062 41.648438 4.019531 41.6875 4.019531 41.730469 C 4.0625 41.855469 4.125 41.984375 4.144531 42.113281 C 4.179688 42.257812 4.15625 42.449219 4.207031 42.574219 C 4.464844 43.226562 4.550781 43.925781 4.730469 44.601562 C 4.855469 45.105469 4.929688 45.613281 5.117188 46.097656 C 5.183594 46.265625 5.246094 46.4375 5.269531 46.605469 C 5.277344 46.773438 5.375 46.921875 5.394531 47.066406 C 5.414062 47.238281 5.511719 47.363281 5.605469 47.492188 C 5.648438 47.554688 5.65625 47.660156 5.691406 47.742188 C 5.785156 47.996094 5.871094 48.058594 6.144531 48.039062 C 6.335938 48.039062 6.472656 47.871094 6.378906 47.722656 C 6.179688 47.425781 6.125 47.109375 6.027344 46.773438 C 5.964844 46.519531 5.871094 46.265625 5.839844 45.992188 C 5.796875 45.761719 5.859375 45.507812 5.703125 45.273438 C 5.753906 44.851562 5.574219 44.472656 5.414062 44.09375 C 5.296875 43.800781 5.183594 43.480469 5.046875 43.164062 C 5.003906 43.039062 4.9375 42.953125 4.792969 42.871094 C 4.539062 42.765625 4.550781 42.679688 4.6875 42.300781 C 4.484375 42.046875 4.296875 41.816406 4.105469 41.5625 Z M 16.820312 65.867188 C 16.660156 65.882812 16.5 65.90625 16.363281 65.78125 C 16.164062 65.589844 15.917969 65.464844 15.71875 65.273438 C 15.179688 64.769531 14.617188 64.28125 14.046875 63.777344 C 13.886719 63.777344 13.695312 63.777344 13.488281 63.777344 C 13.582031 63.648438 13.644531 63.542969 13.71875 63.457031 C 13.539062 63.144531 13.199219 63.082031 12.949219 62.824219 C 12.832031 62.890625 12.671875 62.910156 12.589844 62.996094 C 12.375 63.207031 12.132812 63.269531 11.835938 63.269531 C 11.75 63.269531 11.679688 63.355469 11.59375 63.355469 C 11.457031 63.375 11.328125 63.332031 11.148438 63.3125 C 11.085938 63.355469 10.96875 63.4375 10.863281 63.523438 C 10.566406 63.566406 10.269531 63.5 9.984375 63.648438 C 9.878906 63.714844 9.710938 63.671875 9.574219 63.671875 C 9.371094 63.671875 9.160156 63.628906 8.96875 63.777344 C 8.96875 63.777344 8.925781 63.796875 8.90625 63.796875 C 8.707031 63.796875 8.492188 63.816406 8.28125 63.816406 C 8.082031 63.816406 7.910156 63.964844 7.691406 63.945312 C 7.449219 63.945312 7.183594 63.902344 6.960938 64.074219 C 6.910156 64.113281 6.824219 64.09375 6.746094 64.09375 C 6.398438 64.027344 6.09375 64.242188 5.753906 64.261719 C 5.5 64.449219 5.214844 64.324219 4.9375 64.324219 C 4.875 64.324219 4.800781 64.21875 4.6875 64.136719 C 4.824219 64.113281 4.910156 64.09375 4.992188 64.09375 C 5.183594 64.09375 5.351562 64.074219 5.523438 63.964844 C 5.734375 63.816406 5.988281 63.777344 6.242188 63.796875 C 6.335938 63.816406 6.433594 63.796875 6.527344 63.796875 C 6.917969 63.859375 7.289062 63.691406 7.667969 63.648438 C 7.835938 63.5 8.0625 63.542969 8.261719 63.523438 C 8.664062 63.480469 9.078125 63.394531 9.445312 63.25 C 9.816406 63.082031 10.195312 62.953125 10.578125 62.761719 C 10.535156 62.699219 10.515625 62.636719 10.484375 62.59375 C 10.34375 62.699219 10.175781 62.699219 10.015625 62.699219 C 9.761719 62.699219 9.519531 62.722656 9.285156 62.824219 C 9.234375 62.847656 9.148438 62.804688 9.097656 62.804688 C 8.917969 62.617188 9.117188 62.382812 8.960938 62.171875 C 8.769531 62.109375 8.539062 62.152344 8.3125 62.152344 C 8.089844 62.257812 7.953125 62.425781 7.871094 62.65625 C 7.636719 62.722656 7.402344 62.761719 7.257812 62.511719 C 7.382812 62.171875 7.574219 61.898438 7.933594 61.792969 C 8.144531 61.75 8.269531 61.582031 8.441406 61.457031 C 8.738281 61.265625 8.738281 61.265625 8.746094 60.863281 C 8.664062 60.738281 8.503906 60.738281 8.429688 60.78125 C 8.15625 60.96875 7.859375 60.863281 7.582031 60.90625 C 7.394531 60.695312 7.679688 60.589844 7.605469 60.398438 C 7.574219 60.359375 7.511719 60.296875 7.4375 60.210938 C 7.152344 60.253906 6.855469 60.148438 6.566406 60.316406 C 6.460938 60.378906 6.304688 60.335938 6.101562 60.335938 C 6.230469 60.191406 6.347656 60.085938 6.421875 59.957031 C 6.527344 59.808594 6.707031 59.808594 6.824219 59.703125 C 6.917969 59.640625 6.992188 59.558594 6.898438 59.429688 C 6.738281 59.34375 6.578125 59.410156 6.421875 59.390625 C 6.273438 59.367188 6.15625 59.453125 6.027344 59.492188 C 5.882812 59.535156 5.703125 59.535156 5.542969 59.515625 C 5.226562 59.492188 4.910156 59.558594 4.601562 59.664062 C 4.527344 59.683594 4.296875 59.683594 4.179688 59.664062 C 3.925781 59.664062 3.648438 59.621094 3.414062 59.703125 C 3.214844 59.765625 3.015625 59.789062 2.8125 59.789062 C 2.347656 59.789062 1.894531 59.789062 1.429688 59.808594 C 1.195312 59.808594 0.972656 59.765625 0.75 59.894531 C 0.625 59.957031 0.433594 59.9375 0.273438 59.914062 C 0.179688 59.894531 0.09375 59.808594 0 59.726562 C 0.0429688 59.703125 0.0625 59.683594 0.0859375 59.683594 C 0.507812 59.726562 0.886719 59.515625 1.289062 59.492188 C 1.492188 59.34375 1.734375 59.390625 1.957031 59.390625 C 2.515625 59.390625 2.515625 59.390625 3.140625 59.113281 C 3.308594 59.050781 3.46875 58.964844 3.660156 58.945312 C 3.785156 58.925781 3.882812 58.796875 3.882812 58.605469 C 3.828125 58.585938 3.765625 58.542969 3.714844 58.542969 C 3.351562 58.585938 2.972656 58.480469 2.625 58.671875 C 2.382812 58.648438 2.128906 58.714844 1.882812 58.605469 C 1.746094 58.542969 1.566406 58.566406 1.40625 58.566406 C 0.996094 58.542969 0.582031 58.585938 0.136719 58.523438 C 0.136719 58.398438 0.136719 58.3125 0.148438 58.226562 C 0.15625 57.996094 0.253906 57.867188 0.453125 57.867188 C 0.6875 57.867188 0.921875 57.867188 1.152344 57.867188 C 1.332031 57.847656 1.511719 57.867188 1.691406 57.785156 C 1.832031 57.722656 2.011719 57.742188 2.167969 57.742188 C 2.507812 57.699219 2.847656 57.785156 3.183594 57.617188 C 3.320312 57.53125 3.542969 57.636719 3.722656 57.53125 C 3.722656 57.46875 3.722656 57.425781 3.722656 57.320312 C 3.523438 57.320312 3.34375 57.300781 3.164062 57.300781 C 2.992188 57.300781 2.847656 57.152344 2.65625 57.277344 C 2.507812 57.382812 2.371094 57.195312 2.210938 57.171875 C 2.03125 57.152344 1.851562 57.195312 1.578125 57.066406 C 1.789062 57.046875 1.90625 57.046875 2.011719 57.027344 C 2.359375 57.027344 2.707031 57.089844 3.027344 56.898438 C 3.320312 56.898438 3.628906 56.898438 3.914062 56.898438 C 4 56.8125 4.0625 56.75 4.144531 56.6875 C 4.074219 56.625 4.019531 56.5625 3.964844 56.5 C 3.660156 56.414062 3.351562 56.519531 3.066406 56.433594 C 3.164062 56.246094 3.300781 56.179688 3.480469 56.203125 C 3.660156 56.203125 3.785156 56.140625 3.859375 55.972656 C 3.777344 55.90625 3.691406 55.929688 3.617188 55.992188 C 3.53125 56.035156 3.460938 56.054688 3.363281 56.054688 C 3.214844 56.054688 3.140625 55.949219 3.238281 55.84375 C 3.34375 55.714844 3.257812 55.632812 3.214844 55.527344 C 3.320312 55.507812 3.40625 55.507812 3.488281 55.507812 C 3.703125 55.484375 3.914062 55.546875 4.09375 55.402344 C 4.144531 55.359375 4.230469 55.359375 4.296875 55.378906 C 4.875 55.441406 5.339844 55.167969 5.839844 54.851562 C 5.722656 54.789062 5.628906 54.726562 5.53125 54.683594 C 5.414062 54.664062 5.296875 54.683594 5.183594 54.664062 C 4.84375 54.621094 4.503906 54.746094 4.15625 54.621094 C 3.859375 54.515625 3.542969 54.449219 3.246094 54.367188 C 3.28125 54.21875 3.332031 54.074219 3.332031 53.921875 C 3.34375 53.777344 3.394531 53.714844 3.523438 53.691406 C 3.554688 53.671875 3.574219 53.628906 3.585938 53.585938 C 3.605469 53.480469 3.53125 53.460938 3.46875 53.441406 C 3.300781 53.441406 3.152344 53.375 3.066406 53.226562 C 3.238281 53.121094 3.5 53.226562 3.566406 52.933594 C 3.488281 52.742188 3.300781 52.742188 3.109375 52.722656 C 3.035156 52.554688 2.984375 52.382812 2.875 52.238281 C 2.78125 52.128906 2.632812 52.066406 2.515625 51.960938 C 2.847656 51.835938 3.128906 51.582031 3.53125 51.625 C 3.617188 51.476562 3.679688 51.328125 3.753906 51.222656 C 3.679688 51.015625 3.554688 50.949219 3.375 50.949219 C 3.207031 50.949219 3.054688 50.929688 2.941406 50.738281 C 3.035156 50.632812 3.140625 50.527344 3.257812 50.398438 C 3.585938 50.421875 3.894531 50.359375 4.179688 50.167969 C 4.273438 50.125 4.398438 50.125 4.503906 50.085938 C 4.613281 50.042969 4.730469 49.980469 4.71875 49.855469 C 4.675781 49.558594 4.898438 49.429688 5.066406 49.304688 C 5.332031 49.070312 5.339844 49.070312 5.117188 48.777344 C 5.089844 48.757812 5.066406 48.714844 5.035156 48.671875 C 5.117188 48.605469 5.234375 48.542969 5.257812 48.460938 C 5.277344 48.332031 5.269531 48.1875 5.214844 48.082031 C 5.164062 47.933594 5.054688 47.785156 4.949219 47.679688 C 4.8125 47.511719 4.71875 47.363281 4.707031 47.132812 C 4.695312 46.859375 4.476562 46.644531 4.421875 46.371094 C 4.359375 46.097656 4.207031 45.824219 4.105469 45.546875 C 4.019531 45.296875 3.882812 45.066406 3.894531 44.769531 C 3.894531 44.496094 3.679688 44.261719 3.734375 43.988281 C 3.53125 43.734375 3.640625 43.441406 3.585938 43.164062 C 3.488281 42.976562 3.300781 42.847656 3.320312 42.574219 C 3.332031 42.363281 3.207031 42.132812 3.164062 41.921875 C 3.109375 41.6875 2.898438 41.5 2.5625 41.519531 C 2.496094 41.375 2.421875 41.203125 2.347656 41.035156 C 2.253906 40.824219 2.191406 40.570312 2.117188 40.339844 C 2.019531 40.0625 1.894531 39.789062 1.9375 39.472656 C 1.949219 39.390625 1.925781 39.285156 1.882812 39.222656 C 1.789062 39.09375 1.789062 38.964844 1.789062 38.820312 C 1.789062 38.628906 1.796875 38.421875 1.796875 38.207031 C 1.796875 38.039062 1.796875 37.890625 1.90625 37.742188 C 2.019531 37.574219 1.882812 37.34375 2.039062 37.171875 C 2 37.027344 1.976562 36.898438 1.914062 36.773438 C 1.90625 36.730469 1.820312 36.710938 1.746094 36.667969 C 1.535156 37.003906 1.429688 37.34375 1.617188 37.703125 C 1.679688 37.828125 1.652344 37.957031 1.585938 38.082031 C 1.449219 38.375 1.355469 38.671875 1.375 39.011719 C 1.386719 39.136719 1.398438 39.304688 1.332031 39.410156 C 1.207031 39.578125 1.398438 39.640625 1.375 39.789062 C 1.355469 39.917969 1.375 40.0625 1.386719 40.191406 C 1.398438 40.402344 1.332031 40.613281 1.480469 40.78125 C 1.429688 40.804688 1.363281 40.824219 1.269531 40.847656 C 1.226562 40.550781 1.226562 40.277344 1.132812 40.023438 C 1.046875 39.789062 1.121094 39.515625 1.089844 39.261719 C 1.078125 39.136719 0.984375 39.011719 0.984375 38.882812 C 0.972656 38.589844 0.898438 38.292969 1.066406 37.996094 C 1.121094 37.914062 1.089844 37.789062 1.101562 37.660156 C 1.121094 37.34375 1.058594 37.027344 1.226562 36.730469 C 1.28125 36.605469 1.238281 36.457031 1.238281 36.308594 C 1.246094 36.121094 1.238281 35.929688 1.257812 35.761719 C 1.28125 35.570312 1.417969 35.425781 1.398438 35.234375 C 1.386719 35.171875 1.449219 35.066406 1.5 35.003906 C 1.585938 34.898438 1.679688 34.789062 1.796875 34.664062 C 1.796875 34.433594 1.789062 34.179688 1.796875 33.925781 C 1.808594 33.566406 1.722656 33.1875 1.914062 32.847656 C 1.957031 32.765625 1.925781 32.660156 1.9375 32.574219 C 1.949219 32.425781 1.9375 32.28125 1.988281 32.175781 C 2.128906 31.921875 2.117188 31.585938 2.347656 31.375 C 2.371094 31.351562 2.390625 31.351562 2.421875 31.332031 C 2.527344 31.457031 2.464844 31.605469 2.488281 31.753906 C 2.496094 31.921875 2.496094 32.070312 2.507812 32.214844 C 2.644531 32.238281 2.6875 32.152344 2.75 32.113281 C 2.921875 31.945312 3.054688 31.773438 3.28125 31.667969 C 3.617188 31.519531 3.597656 31.140625 3.734375 30.867188 C 3.753906 30.847656 3.753906 30.761719 3.734375 30.742188 C 3.53125 30.464844 3.628906 30.171875 3.617188 29.875 C 3.605469 29.726562 3.617188 29.601562 3.523438 29.476562 C 3.4375 29.347656 3.449219 29.222656 3.53125 29.09375 C 3.605469 28.988281 3.640625 28.863281 3.574219 28.777344 C 3.40625 28.503906 3.480469 28.230469 3.46875 27.957031 C 3.449219 27.703125 3.4375 27.40625 3.585938 27.15625 C 3.628906 27.089844 3.628906 26.964844 3.585938 26.902344 C 3.386719 26.542969 3.574219 26.121094 3.34375 25.78125 C 3.34375 25.425781 3.34375 25.085938 3.363281 24.75 C 3.363281 24.664062 3.46875 24.601562 3.566406 24.496094 C 3.628906 24.9375 3.574219 25.363281 3.628906 25.824219 C 3.703125 25.953125 3.796875 26.140625 3.871094 26.308594 C 3.914062 26.417969 4.011719 26.4375 4.082031 26.476562 C 4.179688 26.5625 4.15625 26.648438 4.011719 26.730469 C 3.976562 26.753906 3.9375 26.773438 3.894531 26.796875 C 3.871094 26.835938 3.902344 26.984375 3.9375 26.984375 C 4.125 26.984375 4.285156 27.089844 4.441406 27.15625 C 4.503906 27.175781 4.578125 27.132812 4.675781 27.132812 C 4.695312 27.027344 4.71875 26.921875 4.738281 26.816406 C 4.824219 26.691406 4.960938 26.773438 5.054688 26.730469 C 5.078125 26.691406 5.128906 26.648438 5.128906 26.605469 C 5.128906 26.4375 5.117188 26.246094 5.128906 26.058594 C 5.128906 25.972656 5.152344 25.890625 5.164062 25.78125 C 5.308594 25.847656 5.269531 26.078125 5.5 26.035156 C 5.585938 25.953125 5.691406 25.824219 5.785156 25.71875 C 5.796875 25.65625 5.820312 25.613281 5.820312 25.570312 C 5.828125 25.191406 5.847656 24.835938 5.839844 24.472656 C 5.820312 24.136719 5.902344 23.777344 5.710938 23.460938 C 5.648438 23.355469 5.703125 23.1875 5.703125 23.039062 C 5.691406 22.746094 5.722656 22.449219 5.574219 22.175781 C 5.542969 22.132812 5.574219 22.046875 5.574219 21.964844 C 5.585938 21.921875 5.710938 21.878906 5.753906 21.921875 C 5.828125 22.007812 5.914062 22.089844 5.957031 22.175781 C 6.027344 22.34375 6.050781 22.535156 6.113281 22.703125 C 6.15625 22.808594 6.230469 22.894531 6.292969 22.976562 C 6.484375 22.765625 6.546875 22.535156 6.539062 22.28125 C 6.527344 22.027344 6.539062 21.773438 6.539062 21.519531 C 6.707031 21.542969 6.78125 21.625 6.78125 21.734375 C 6.789062 21.902344 6.886719 22.046875 6.949219 22.175781 C 7.042969 22.386719 7.054688 22.386719 7.394531 22.578125 C 7.550781 22.429688 7.617188 22.28125 7.519531 22.046875 C 7.464844 21.902344 7.511719 21.734375 7.511719 21.542969 C 7.59375 21.351562 7.816406 21.332031 8.039062 21.332031 C 8.039062 21.183594 8.070312 21.078125 8.027344 21.015625 C 7.945312 20.867188 7.878906 20.742188 8.007812 20.574219 C 8.070312 20.511719 8.0625 20.359375 8.113281 20.253906 C 8.175781 20.152344 8.1875 20.066406 8.125 19.9375 C 8.039062 19.75 8.0625 19.75 8.132812 19.371094 C 8.25 19.496094 8.335938 19.601562 8.421875 19.707031 C 8.527344 19.960938 8.355469 20.296875 8.671875 20.488281 C 8.808594 20.382812 8.960938 20.296875 9.140625 20.171875 C 9.167969 20.046875 9.246094 19.875 9.234375 19.707031 C 9.222656 19.601562 9.160156 19.496094 9.167969 19.371094 C 9.214844 19.09375 9.03125 18.84375 9.042969 18.566406 C 9.042969 18.292969 8.917969 18.039062 8.84375 17.789062 C 8.746094 17.453125 8.726562 17.453125 8.820312 17.070312 C 8.886719 17.195312 9 17.324219 9 17.429688 C 9.011719 17.765625 9.078125 18.0625 9.257812 18.335938 C 9.308594 18.398438 9.320312 18.527344 9.308594 18.609375 C 9.265625 18.84375 9.390625 19.054688 9.5 19.246094 C 9.582031 19.414062 9.730469 19.453125 9.933594 19.390625 C 10.050781 19.199219 10.007812 18.988281 9.976562 18.800781 C 9.953125 18.695312 9.898438 18.609375 9.976562 18.503906 C 10.113281 18.292969 10.164062 18.039062 10.15625 17.789062 C 10.144531 17.597656 10.113281 17.40625 10.257812 17.261719 C 10.238281 16.964844 10.417969 16.816406 10.664062 16.710938 C 10.671875 16.648438 10.695312 16.605469 10.683594 16.5625 C 10.652344 16.417969 10.609375 16.269531 10.566406 16.121094 C 10.714844 15.828125 10.671875 15.488281 10.84375 15.214844 C 10.9375 15.066406 10.960938 14.917969 10.980469 14.769531 C 10.980469 14.664062 11.066406 14.5625 11.128906 14.453125 C 11.390625 14.582031 11.632812 14.6875 11.878906 14.792969 C 11.984375 14.730469 11.921875 14.601562 11.941406 14.496094 C 11.953125 14.410156 11.984375 14.347656 12.078125 14.285156 C 12.269531 14.179688 12.34375 13.992188 12.355469 13.777344 C 12.375 13.484375 12.363281 13.1875 12.480469 12.894531 C 12.542969 12.722656 12.542969 12.492188 12.40625 12.304688 C 12.363281 12.238281 12.375 12.136719 12.386719 12.03125 C 12.386719 12.007812 12.4375 11.964844 12.472656 11.945312 C 12.503906 11.945312 12.566406 11.945312 12.597656 11.964844 C 12.660156 12.03125 12.757812 12.113281 12.757812 12.175781 C 12.777344 12.429688 12.9375 12.597656 13.136719 12.769531 C 13.296875 12.769531 13.476562 12.769531 13.695312 12.769531 C 13.75 12.640625 13.835938 12.511719 13.875 12.367188 C 13.898438 12.304688 13.824219 12.199219 13.804688 12.136719 C 13.804688 12.136719 14.195312 12.449219 14.21875 12.472656 C 14.398438 12.429688 14.449219 12.304688 14.460938 12.113281 C 14.460938 11.984375 14.40625 11.839844 14.492188 11.710938 C 14.628906 11.628906 14.882812 11.691406 14.902344 11.417969 C 15.0625 11.394531 15.210938 11.375 15.371094 11.351562 C 15.398438 11.226562 15.433594 11.121094 15.464844 11.015625 C 15.644531 10.886719 15.792969 11.015625 15.972656 11.121094 C 15.972656 10.886719 15.972656 10.699219 15.972656 10.53125 C 16.078125 10.40625 16.164062 10.296875 16.257812 10.191406 C 16.257812 10.023438 16.257812 9.835938 16.257812 9.6875 C 16.40625 9.558594 16.542969 9.476562 16.648438 9.371094 C 16.734375 9.265625 16.785156 9.136719 16.859375 9.03125 C 16.957031 9.179688 17.027344 9.285156 17.113281 9.390625 C 17.359375 9.6875 17.496094 9.664062 17.769531 9.351562 C 17.683594 9.117188 17.578125 8.90625 17.515625 8.652344 C 17.476562 8.546875 17.515625 8.398438 17.515625 8.210938 C 17.675781 8.316406 17.78125 8.421875 17.917969 8.484375 C 17.980469 8.507812 18.109375 8.527344 18.160156 8.421875 C 18.195312 8.378906 18.203125 8.292969 18.195312 8.230469 C 18.117188 7.914062 17.90625 7.660156 17.632812 7.410156 C 17.855469 7.386719 18.023438 7.367188 18.203125 7.34375 C 18.160156 7.261719 18.128906 7.195312 18.089844 7.113281 C 18.4375 7.050781 18.773438 7.113281 19.101562 7.09375 C 19.261719 6.882812 19.175781 6.691406 19.007812 6.605469 C 18.808594 6.480469 18.628906 6.355469 18.488281 6.164062 C 18.46875 6.144531 18.5 6.078125 18.523438 6.015625 C 18.828125 6.164062 19.125 6.3125 19.429688 6.460938 C 19.726562 6.585938 19.789062 6.5625 20 6.292969 C 20.035156 6.25 20.066406 6.164062 20.105469 6.144531 C 20.363281 6.121094 20.257812 5.890625 20.332031 5.761719 C 20.402344 5.785156 20.488281 5.804688 20.550781 5.847656 C 20.761719 5.953125 20.976562 6.058594 21.207031 5.953125 C 21.398438 5.867188 21.628906 5.804688 21.707031 5.53125 C 21.734375 5.402344 21.851562 5.300781 22.023438 5.300781 C 22.085938 5.300781 22.148438 5.277344 22.203125 5.234375 C 22.390625 5.109375 22.382812 4.8125 22.644531 4.730469 C 22.835938 4.667969 22.910156 4.433594 23.015625 4.265625 C 23.101562 4.136719 23.078125 3.96875 23.113281 3.78125 C 23.207031 3.863281 23.269531 3.90625 23.335938 3.96875 C 23.335938 4.328125 23.335938 4.667969 23.335938 5.003906 C 23.113281 5.277344 23.300781 5.660156 23.089844 5.910156 C 23.058594 6.269531 22.847656 6.542969 22.796875 6.902344 C 23.058594 7.195312 23.363281 7.410156 23.796875 7.386719 C 23.863281 7.367188 23.949219 7.367188 23.988281 7.324219 C 24.128906 7.195312 24.296875 7.21875 24.445312 7.238281 C 24.65625 7.238281 24.792969 7.113281 24.964844 7.050781 C 25.066406 6.734375 25.257812 6.773438 25.480469 6.921875 C 25.585938 6.988281 25.703125 6.964844 25.808594 6.902344 C 26 6.773438 26.199219 6.667969 26.390625 6.5625 C 26.476562 6.585938 26.550781 6.605469 26.65625 6.652344 C 26.707031 6.585938 26.761719 6.523438 26.824219 6.460938 C 26.78125 6.1875 26.515625 6.101562 26.410156 5.890625 C 26.453125 5.679688 26.570312 5.574219 26.78125 5.574219 C 26.953125 5.574219 26.929688 5.425781 27.027344 5.320312 C 27.269531 5.320312 27.542969 5.320312 27.871094 5.320312 C 28.007812 5.402344 28.144531 5.59375 28.421875 5.59375 C 28.65625 5.59375 28.898438 5.722656 29.152344 5.722656 C 29.296875 5.722656 29.4375 5.847656 29.585938 5.910156 C 29.828125 6.058594 30.082031 6.164062 30.359375 6.121094 C 30.558594 6.101562 30.71875 6.25 30.9375 6.164062 C 31.117188 6.078125 31.351562 6.144531 31.5625 6.121094 C 31.785156 6.121094 31.976562 5.972656 32.230469 5.996094 C 32.453125 6.015625 32.683594 6.015625 32.894531 5.867188 C 32.9375 5.847656 33.023438 5.867188 33.09375 5.847656 C 33.371094 5.847656 33.65625 5.890625 33.902344 5.722656 C 33.921875 5.722656 33.941406 5.722656 33.976562 5.722656 C 34.460938 5.761719 34.914062 5.574219 35.390625 5.550781 C 35.707031 5.550781 36.003906 5.382812 36.335938 5.402344 C 36.515625 5.257812 36.722656 5.320312 36.9375 5.300781 C 37.335938 5.277344 37.761719 5.339844 38.152344 5.171875 C 38.226562 5.128906 38.332031 5.152344 38.425781 5.152344 C 38.765625 5.152344 39.117188 5.234375 39.441406 5.027344 C 39.800781 5.066406 40.171875 4.921875 40.519531 5.128906 C 40.648438 5.214844 40.734375 5.003906 40.902344 5.089844 C 41.03125 5.171875 41.210938 5.128906 41.367188 5.152344 C 41.515625 5.171875 41.632812 5.089844 41.757812 5.066406 C 42.003906 5.003906 42.269531 5.027344 42.519531 5.027344 C 42.835938 5.027344 43.167969 4.941406 43.464844 5.152344 C 43.527344 5.195312 43.644531 5.152344 43.738281 5.152344 C 43.90625 5.171875 44.03125 5.042969 44.191406 5.042969 C 44.339844 5.042969 44.464844 5.195312 44.644531 5.171875 C 44.976562 5.109375 45.273438 5.277344 45.589844 5.277344 C 45.894531 5.300781 46.148438 5.507812 46.453125 5.445312 C 46.699219 5.660156 47.027344 5.53125 47.3125 5.660156 C 47.542969 5.761719 47.800781 5.910156 48.09375 5.867188 C 48.378906 6.015625 48.667969 6.144531 48.992188 6.164062 C 49.144531 6.292969 49.375 6.207031 49.511719 6.292969 C 49.691406 6.417969 49.902344 6.394531 50.09375 6.5 C 50.242188 6.585938 50.433594 6.585938 50.601562 6.667969 C 50.773438 6.734375 50.960938 6.773438 51.097656 6.882812 C 51.277344 6.988281 51.414062 7.132812 51.660156 7.113281 C 51.734375 7.09375 51.816406 7.175781 51.890625 7.21875 C 51.988281 7.28125 52.070312 7.367188 52.199219 7.367188 C 52.464844 7.367188 52.675781 7.492188 52.875 7.640625 C 53.160156 7.851562 53.667969 8.042969 54.019531 8.0625 C 54.304688 8.085938 54.527344 8.167969 54.675781 8.445312 C 54.824219 8.71875 55.109375 8.863281 55.414062 8.886719 C 55.59375 8.90625 55.710938 8.96875 55.847656 9.054688 C 56.070312 9.222656 56.300781 9.371094 56.652344 9.285156 C 56.746094 9.179688 56.886719 9.054688 57.023438 8.925781 C 57.140625 8.84375 57.265625 8.738281 57.382812 8.652344 C 57.339844 8.460938 57.097656 8.421875 57.066406 8.230469 C 57.011719 8.253906 56.949219 8.273438 56.894531 8.292969 C 56.839844 8.210938 56.777344 8.085938 56.738281 8.085938 C 56.492188 8.105469 56.375 7.894531 56.207031 7.808594 C 55.964844 7.683594 55.804688 7.492188 55.625 7.324219 C 55.59375 7.28125 55.617188 7.195312 55.617188 7.113281 C 55.902344 7.261719 56.1875 7.34375 56.398438 7.554688 C 56.453125 7.597656 56.527344 7.640625 56.578125 7.640625 C 56.800781 7.621094 56.992188 7.660156 57.140625 7.851562 C 57.171875 7.894531 57.253906 7.894531 57.316406 7.914062 C 57.644531 8.019531 57.976562 8.105469 58.21875 8.378906 C 58.324219 8.292969 58.398438 8.253906 58.460938 8.1875 C 58.578125 8.042969 58.726562 7.9375 58.902344 7.871094 C 59.03125 7.828125 59.171875 7.808594 59.285156 7.746094 C 59.402344 7.660156 59.488281 7.535156 59.605469 7.472656 C 59.921875 7.28125 60.226562 7.09375 60.578125 6.988281 C 60.820312 6.902344 61.042969 6.796875 61.261719 6.691406 C 61.570312 6.542969 61.878906 6.394531 62.207031 6.292969 C 62.386719 6.25 62.554688 6.207031 62.605469 5.996094 C 62.871094 5.804688 63.144531 5.660156 63.453125 5.574219 C 63.726562 5.46875 64.035156 5.445312 64.246094 5.195312 C 64.269531 5.171875 64.320312 5.171875 64.363281 5.152344 C 64.660156 5.042969 64.953125 4.921875 65.21875 4.75 C 65.527344 4.539062 65.863281 4.414062 66.257812 4.476562 C 66.425781 4.496094 66.625 4.496094 66.773438 4.351562 C 66.796875 4.351562 66.816406 4.328125 66.839844 4.328125 C 67.378906 4.371094 67.875 4.097656 68.433594 4.203125 C 68.582031 4.308594 68.75 4.433594 68.941406 4.5625 C 68.867188 5.003906 69.109375 5.363281 69.300781 5.742188 C 69.292969 5.785156 69.28125 5.828125 69.273438 5.867188 C 69.21875 6.164062 69.09375 6.394531 68.773438 6.542969 C 68.457031 6.691406 68.457031 6.796875 68.625 7.15625 C 68.625 7.175781 68.636719 7.195312 68.648438 7.238281 C 68.53125 7.515625 68.351562 7.765625 68.351562 8.105469 C 68.351562 8.253906 68.210938 8.398438 68.148438 8.507812 C 68.191406 8.652344 68.222656 8.78125 68.257812 8.90625 C 68.109375 9.011719 67.980469 9.09375 67.851562 9.203125 C 67.695312 9.308594 67.546875 9.414062 67.503906 9.644531 C 67.460938 9.855469 67.28125 10.046875 67.121094 10.296875 C 67.167969 10.59375 67.082031 10.929688 66.804688 11.226562 C 66.679688 11.351562 66.691406 11.503906 66.773438 11.671875 C 66.847656 11.777344 66.914062 11.902344 66.984375 12.03125 C 66.859375 12.136719 66.753906 12.261719 66.617188 12.324219 C 66.4375 12.410156 66.320312 12.535156 66.183594 12.660156 C 66.066406 12.769531 66.015625 12.871094 66.003906 13.019531 C 65.992188 13.105469 65.929688 13.230469 65.863281 13.230469 C 65.589844 13.316406 65.464844 13.632812 65.144531 13.609375 C 65.125 13.609375 65.105469 13.632812 65.09375 13.652344 C 65.082031 13.695312 65.050781 13.738281 65.058594 13.777344 C 65.070312 13.820312 65.125 13.863281 65.144531 13.863281 C 65.242188 13.84375 65.3125 13.800781 65.410156 13.777344 C 65.453125 13.800781 65.503906 13.863281 65.546875 13.90625 C 65.535156 13.945312 65.535156 13.992188 65.503906 14.011719 C 65.390625 14.117188 65.292969 14.242188 65.132812 14.304688 C 65.007812 14.347656 64.996094 14.582031 65.09375 14.664062 C 65.429688 14.980469 65.671875 15.382812 66.109375 15.570312 C 66.300781 15.867188 66.605469 16.078125 66.742188 16.4375 C 66.828125 16.648438 66.933594 16.859375 67.050781 17.050781 C 67.167969 17.238281 67.3125 17.40625 67.441406 17.597656 C 67.480469 17.640625 67.515625 17.703125 67.535156 17.765625 C 67.671875 18.273438 68.003906 18.652344 68.351562 19.03125 C 68.402344 19.414062 68.46875 19.832031 68.75 20.152344 C 68.785156 20.402344 68.953125 20.613281 69.027344 20.847656 C 69.132812 21.207031 69.335938 21.542969 69.480469 21.902344 C 69.554688 22.046875 69.671875 22.195312 69.652344 22.40625 C 69.640625 22.472656 69.703125 22.578125 69.746094 22.640625 C 69.832031 22.785156 69.957031 22.914062 70 23.039062 C 70.128906 23.503906 70.402344 23.90625 70.464844 24.390625 C 70.476562 24.453125 70.457031 24.539062 70.496094 24.578125 C 70.6875 24.875 70.730469 25.234375 70.890625 25.53125 C 71.132812 25.953125 71.269531 26.4375 71.441406 26.902344 C 71.480469 27.027344 71.511719 27.15625 71.578125 27.28125 C 71.714844 27.574219 71.851562 27.894531 71.875 28.230469 C 71.902344 28.546875 72.03125 28.863281 72.160156 29.136719 C 72.234375 29.285156 72.261719 29.433594 72.316406 29.582031 C 72.328125 29.621094 72.378906 29.621094 72.421875 29.664062 C 72.433594 29.6875 72.453125 29.726562 72.476562 29.769531 C 72.496094 29.726562 72.519531 29.707031 72.539062 29.664062 C 72.582031 29.6875 72.644531 29.6875 72.65625 29.707031 C 72.675781 29.832031 72.675781 29.980469 72.6875 30.109375 C 72.71875 30.359375 72.621094 30.613281 72.8125 30.847656 C 72.824219 31.078125 72.835938 31.289062 72.835938 31.519531 C 72.835938 31.667969 72.867188 31.796875 72.929688 31.921875 C 73.058594 32.132812 73.132812 32.363281 73.109375 32.640625 C 73.089844 33.019531 73.277344 33.378906 73.3125 33.757812 C 73.3125 33.820312 73.363281 33.882812 73.375 33.945312 C 73.386719 34.179688 73.40625 34.410156 73.386719 34.644531 C 73.351562 34.898438 73.511719 35.085938 73.523438 35.316406 C 73.542969 35.59375 73.503906 35.886719 73.597656 36.183594 C 73.683594 36.4375 73.660156 36.730469 73.648438 37.003906 C 73.636719 37.15625 73.789062 37.238281 73.734375 37.386719 C 73.695312 37.492188 73.671875 37.597656 73.660156 37.703125 C 73.648438 37.851562 73.683594 37.996094 73.660156 38.125 C 73.597656 38.609375 73.789062 39.011719 74.007812 39.429688 C 74.125 39.453125 74.296875 39.410156 74.390625 39.472656 C 74.527344 39.578125 74.65625 39.472656 74.738281 39.535156 C 74.898438 39.597656 75.003906 39.597656 75.132812 39.472656 C 75.300781 39.640625 75.46875 39.789062 75.648438 39.957031 C 75.808594 40.0625 76.042969 39.957031 76.210938 40.128906 C 76.335938 40.253906 76.515625 40.316406 76.664062 40.402344 C 76.707031 40.339844 76.726562 40.277344 76.761719 40.214844 C 76.789062 40.214844 76.835938 40.214844 76.863281 40.234375 C 77.003906 40.339844 77.140625 40.464844 77.277344 40.589844 C 77.128906 40.824219 77.128906 40.929688 77.269531 41.035156 C 77.320312 41.054688 77.382812 41.097656 77.445312 41.121094 C 77.59375 41.183594 77.785156 41.183594 77.878906 41.289062 C 78.285156 41.6875 78.84375 41.921875 79.203125 42.46875 C 79.203125 42.703125 79.203125 42.953125 79.203125 43.226562 C 79.308594 43.355469 79.402344 43.460938 79.488281 43.566406 C 79.488281 43.691406 79.507812 43.839844 79.488281 43.96875 C 79.457031 44.179688 79.390625 44.410156 79.203125 44.496094 C 78.894531 44.621094 78.800781 44.914062 78.609375 45.128906 C 78.398438 45.402344 78.230469 45.699219 78.03125 45.972656 C 77.953125 46.074219 77.945312 46.203125 78.007812 46.289062 C 78.210938 46.582031 77.953125 46.796875 77.902344 47.046875 C 77.878906 47.109375 77.765625 47.171875 77.679688 47.195312 C 77.59375 47.214844 77.5 47.195312 77.40625 47.214844 C 77.277344 47.238281 77.160156 47.363281 77.148438 47.492188 C 77.140625 47.636719 77.148438 47.765625 77.148438 47.933594 C 77.035156 47.996094 76.917969 48.058594 76.8125 48.144531 C 76.726562 48.230469 76.664062 48.3125 76.582031 48.417969 C 76.582031 48.628906 76.582031 48.820312 76.582031 49.050781 C 76.496094 49.113281 76.421875 49.199219 76.324219 49.285156 C 76.285156 49.324219 76.175781 49.367188 76.1875 49.390625 C 76.222656 49.703125 75.808594 49.832031 75.871094 50.148438 C 75.777344 50.296875 75.679688 50.464844 75.492188 50.507812 C 75.277344 50.570312 75.214844 50.738281 75.078125 50.84375 C 75.109375 50.90625 75.132812 50.949219 75.160156 51.015625 C 74.980469 51.203125 74.800781 51.390625 74.632812 51.582031 C 74.632812 51.730469 74.632812 51.835938 74.632812 51.941406 C 74.507812 52.089844 74.378906 52.238281 74.273438 52.363281 C 74.25 52.40625 74.234375 52.449219 74.234375 52.488281 C 74.210938 52.636719 74.199219 52.765625 74.148438 52.890625 C 74.0625 53.144531 73.945312 53.398438 73.914062 53.671875 C 73.890625 53.839844 73.828125 54.050781 73.597656 54.15625 C 73.449219 54.21875 73.363281 54.367188 73.375 54.535156 C 73.375 54.621094 73.351562 54.726562 73.332031 54.832031 C 73.21875 54.789062 73.132812 54.769531 73.046875 54.726562 C 72.910156 55.019531 72.773438 55.316406 72.824219 55.675781 C 72.847656 55.824219 72.761719 55.929688 72.621094 56.054688 C 72.464844 56.054688 72.285156 56.074219 72.105469 56.074219 C 71.945312 56.054688 71.789062 56.054688 71.648438 55.949219 C 71.554688 55.886719 71.429688 55.886719 71.332031 55.972656 C 71.503906 56.179688 71.863281 56.117188 71.945312 56.433594 C 71.875 56.5625 71.777344 56.644531 71.621094 56.582031 C 71.535156 56.539062 71.449219 56.476562 71.363281 56.476562 C 70.964844 56.476562 70.613281 56.308594 70.253906 56.179688 C 70.148438 56.117188 70.066406 56.054688 69.9375 56.054688 C 69.726562 56.074219 69.535156 56.011719 69.34375 55.929688 C 69.1875 55.867188 69.007812 55.867188 68.804688 55.84375 C 68.828125 55.90625 68.835938 56.011719 68.859375 56.011719 C 69.195312 56.074219 69.480469 56.285156 69.789062 56.414062 C 69.980469 56.5 70.148438 56.625 70.371094 56.625 C 70.476562 56.773438 70.570312 56.921875 70.6875 57.046875 C 70.785156 57.152344 70.902344 57.238281 71.015625 57.300781 C 71.183594 57.382812 71.300781 57.507812 71.460938 57.699219 C 71.324219 57.699219 71.226562 57.722656 71.152344 57.699219 C 70.972656 57.660156 70.804688 57.597656 70.636719 57.53125 C 70.550781 57.507812 70.464844 57.445312 70.378906 57.445312 C 70.105469 57.445312 69.832031 57.46875 69.585938 57.300781 C 69.367188 57.363281 69.175781 57.238281 69.007812 57.152344 C 68.734375 57.027344 68.414062 57.066406 68.148438 56.921875 C 68.042969 56.855469 67.9375 56.984375 67.886719 57.066406 C 67.84375 57.152344 67.832031 57.238281 67.832031 57.339844 C 67.832031 57.363281 67.886719 57.40625 67.917969 57.425781 C 68.066406 57.492188 68.210938 57.574219 68.363281 57.574219 C 68.542969 57.597656 68.667969 57.660156 68.785156 57.785156 C 68.828125 57.828125 68.902344 57.867188 68.964844 57.867188 C 69.28125 57.828125 69.492188 57.996094 69.621094 58.25 C 69.714844 58.460938 69.851562 58.542969 70.085938 58.585938 C 70.253906 58.605469 70.414062 58.757812 70.550781 58.859375 C 70.59375 58.882812 70.59375 58.964844 70.582031 59.03125 C 70.570312 59.09375 70.519531 59.070312 70.476562 59.03125 C 70.296875 58.859375 70.011719 59.070312 69.832031 58.859375 C 69.820312 58.902344 69.789062 58.945312 69.789062 58.988281 C 69.789062 59.132812 69.980469 59.070312 70.019531 59.199219 C 69.820312 59.261719 69.609375 59.261719 69.417969 59.199219 C 69.058594 59.09375 68.699219 58.945312 68.339844 58.820312 C 68.234375 58.777344 68.140625 58.714844 68.03125 58.691406 C 67.84375 58.628906 67.695312 58.566406 67.671875 58.355469 C 67.660156 58.292969 67.589844 58.25 67.535156 58.1875 C 67.472656 58.121094 67.347656 58.121094 67.292969 58.207031 C 67.101562 58.4375 66.941406 58.671875 66.722656 58.882812 C 66.488281 59.09375 66.257812 59.304688 65.941406 59.410156 C 65.78125 59.472656 65.609375 59.558594 65.535156 59.746094 C 65.492188 59.851562 65.402344 59.9375 65.3125 60.023438 C 64.988281 60.316406 64.734375 60.65625 64.5 61.03125 C 64.363281 61.246094 64.226562 61.433594 63.929688 61.457031 C 63.835938 61.476562 63.707031 61.582031 63.675781 61.6875 C 63.621094 61.878906 63.464844 61.984375 63.347656 62.109375 C 63.253906 62.214844 63.125 62.257812 63 62.300781 C 62.753906 62.40625 62.523438 62.53125 62.363281 62.761719 C 62.152344 63.101562 61.917969 63.417969 61.730469 63.734375 C 61.6875 63.816406 61.65625 63.902344 61.59375 63.988281 C 61.347656 64.242188 61.160156 64.554688 60.96875 64.875 C 60.746094 65.210938 60.492188 65.546875 60.25 65.867188 C 60.164062 65.96875 60.046875 66.054688 59.964844 66.140625 C 59.773438 66.160156 59.699219 66.054688 59.632812 65.929688 C 59.644531 65.882812 59.632812 65.820312 59.667969 65.800781 C 59.8125 65.652344 59.867188 65.441406 60.046875 65.339844 C 60.214844 65.230469 60.214844 65.019531 60.375 64.894531 C 60.4375 64.851562 60.4375 64.746094 60.460938 64.664062 C 60.46875 64.617188 60.4375 64.554688 60.40625 64.535156 C 60.386719 64.515625 60.3125 64.492188 60.289062 64.515625 C 60.144531 64.617188 60.003906 64.746094 59.867188 64.875 C 59.742188 64.976562 59.632812 65.105469 59.496094 65.167969 C 59.105469 65.359375 58.726562 65.546875 58.40625 65.867188 C 58.15625 65.949219 58.003906 66.160156 57.835938 66.347656 C 57.316406 66.875 56.949219 67.109375 56.113281 67.40625 C 55.984375 67.46875 55.878906 67.550781 55.878906 67.722656 C 55.871094 67.867188 55.871094 68.039062 55.859375 68.183594 C 55.691406 68.308594 55.542969 68.417969 55.390625 68.5 C 55.171875 68.667969 54.9375 68.796875 54.726562 68.988281 C 54.539062 69.175781 54.242188 69.21875 54.03125 69.40625 C 53.925781 69.515625 53.746094 69.558594 53.605469 69.621094 C 53.519531 69.640625 53.414062 69.660156 53.351562 69.726562 C 53.097656 69.933594 52.789062 70 52.476562 70.039062 C 52.3125 70.039062 52.210938 70.125 52.132812 70.230469 C 52.113281 70.273438 52.144531 70.359375 52.15625 70.441406 C 52.613281 70.167969 53.121094 70.085938 53.628906 69.957031 C 53.554688 70.019531 53.480469 70.125 53.394531 70.148438 C 52.898438 70.253906 52.476562 70.527344 51.988281 70.632812 C 51.863281 70.757812 51.671875 70.671875 51.53125 70.738281 C 51.386719 70.800781 51.246094 70.886719 51.109375 70.949219 C 51.003906 70.925781 50.886719 70.863281 50.792969 70.886719 C 50.601562 70.949219 50.421875 71.054688 50.242188 71.136719 C 49.746094 71.371094 49.207031 71.476562 48.699219 71.664062 C 48.507812 71.726562 48.316406 71.792969 48.128906 71.878906 C 47.9375 71.941406 47.746094 72.066406 47.554688 72.089844 C 47.195312 72.089844 46.910156 72.277344 46.605469 72.425781 C 46.5625 72.53125 46.507812 72.636719 46.453125 72.742188 C 46.570312 72.867188 46.699219 72.992188 46.8125 73.121094 C 46.890625 73.351562 46.785156 73.5 46.617188 73.609375 C 46.359375 73.753906 46.085938 73.859375 45.820312 73.984375 C 45.671875 74.070312 45.503906 74.070312 45.355469 73.984375 C 45.21875 73.902344 45.121094 73.945312 44.976562 73.984375 C 44.804688 74.050781 44.617188 74.027344 44.4375 74.027344 C 44.023438 74.027344 43.609375 74.113281 43.207031 73.921875 C 43.09375 73.859375 42.933594 73.902344 42.796875 73.902344 C 42.519531 73.882812 42.246094 73.964844 41.992188 73.777344 C 41.972656 73.777344 41.949219 73.777344 41.929688 73.777344 C 41.671875 73.753906 41.398438 73.777344 41.179688 73.691406 C 40.945312 73.625 40.722656 73.648438 40.492188 73.625 C 40.289062 73.625 40.089844 73.609375 39.898438 73.523438 C 39.738281 73.4375 39.515625 73.5 39.359375 73.417969 C 39.179688 73.351562 39 73.375 38.820312 73.351562 C 38.671875 73.3125 38.523438 73.25 38.363281 73.226562 C 38.144531 73.207031 37.917969 73.183594 37.695312 73.101562 C 37.488281 73.015625 37.234375 73.078125 37 73.058594 C 36.9375 73.058594 36.875 73.015625 36.820312 72.992188 C 36.554688 72.824219 36.257812 72.761719 35.964844 72.804688 C 35.742188 72.824219 35.570312 72.699219 35.371094 72.65625 C 35.148438 72.617188 34.925781 72.53125 34.703125 72.53125 C 34.480469 72.53125 34.3125 72.402344 34.113281 72.382812 C 33.796875 72.339844 33.488281 72.257812 33.191406 72.152344 C 33.035156 72.109375 32.863281 72.066406 32.726562 72.128906 C 32.386719 72.296875 32.070312 72.320312 31.742188 72.128906 C 31.414062 72.171875 31.140625 71.917969 30.8125 71.984375 C 30.71875 71.984375 30.644531 71.941406 30.558594 71.898438 C 30.3125 71.769531 30.0625 71.664062 29.808594 71.582031 C 29.691406 71.539062 29.542969 71.558594 29.402344 71.582031 C 29.386719 71.582031 29.363281 71.644531 29.339844 71.6875 C 29.339844 71.707031 29.339844 71.75 29.339844 71.75 C 29.773438 71.832031 30.050781 72.257812 30.527344 72.257812 C 30.644531 72.234375 30.78125 72.320312 30.898438 72.402344 C 31.015625 72.464844 31.128906 72.53125 31.277344 72.511719 C 31.296875 72.511719 31.328125 72.511719 31.351562 72.53125 C 31.667969 72.617188 31.964844 72.785156 32.324219 72.824219 C 32.621094 72.847656 32.925781 72.992188 33.210938 73.144531 C 33.320312 73.183594 33.4375 73.207031 33.539062 73.207031 C 34.039062 73.144531 34.480469 73.394531 34.96875 73.351562 C 35.234375 73.523438 35.550781 73.457031 35.824219 73.542969 C 36.058594 73.648438 36.324219 73.671875 36.46875 73.902344 C 36.523438 73.984375 36.609375 74.027344 36.671875 74.089844 C 36.492188 74.449219 36.183594 74.257812 35.953125 74.304688 C 35.835938 74.21875 35.75 74.15625 35.65625 74.070312 C 35.570312 74.113281 35.464844 74.175781 35.414062 74.15625 C 35.105469 73.964844 34.777344 74.089844 34.449219 74.027344 C 34.28125 73.945312 34.101562 73.859375 33.910156 73.777344 C 33.804688 73.734375 33.699219 73.691406 33.59375 73.671875 C 33.511719 73.671875 33.425781 73.734375 33.351562 73.753906 C 32.9375 73.777344 32.515625 73.796875 32.132812 73.609375 C 31.871094 73.480469 31.542969 73.5625 31.296875 73.375 C 31.246094 73.332031 31.140625 73.332031 31.097656 73.375 C 30.960938 73.457031 30.851562 73.394531 30.726562 73.375 C 30.261719 73.269531 29.828125 73.058594 29.375 72.929688 C 29.269531 72.910156 29.160156 72.824219 29.078125 72.761719 C 28.9375 72.636719 28.800781 72.511719 28.664062 72.382812 C 28.367188 72.382812 28.0625 72.382812 27.757812 72.382812 C 27.617188 72.277344 27.492188 72.128906 27.332031 72.023438 C 27.207031 71.941406 27.035156 71.917969 26.898438 71.855469 C 26.6875 71.75 26.484375 71.664062 26.253906 71.558594 C 26.191406 71.582031 26.105469 71.625 26.019531 71.664062 C 25.988281 71.664062 25.9375 71.664062 25.902344 71.644531 C 25.683594 71.496094 25.375 71.496094 25.246094 71.203125 C 25.21875 71.136719 25.101562 71.097656 25.015625 71.074219 C 24.667969 70.925781 24.371094 70.71875 24.105469 70.464844 C 23.875 70.441406 23.652344 70.441406 23.472656 70.253906 C 23.398438 70.167969 23.226562 70.148438 23.089844 70.105469 C 23.195312 70.039062 23.292969 70 23.410156 69.933594 C 23.503906 70 23.589844 70.105469 23.703125 70.148438 C 23.777344 70.191406 23.882812 70.167969 23.96875 70.125 C 24.042969 70.105469 24.085938 69.894531 24.019531 69.832031 C 23.914062 69.703125 23.808594 69.558594 23.683594 69.492188 C 23.050781 69.113281 22.433594 68.734375 21.820312 68.355469 C 21.269531 68.039062 20.742188 67.679688 20.234375 67.300781 C 19.980469 67.109375 19.683594 66.960938 19.441406 66.75 C 19.292969 66.625 19.050781 66.601562 18.996094 66.347656 C 18.808594 66.242188 18.59375 66.160156 18.414062 66.011719 C 18.246094 65.882812 18.042969 65.84375 17.875 65.738281 C 17.65625 65.589844 17.441406 65.464844 17.273438 65.292969 C 16.828125 64.851562 16.332031 64.472656 15.835938 64.113281 C 15.667969 64.007812 15.515625 63.839844 15.335938 63.671875 C 15.09375 63.648438 14.820312 63.628906 14.542969 63.691406 C 14.5 63.691406 14.480469 63.796875 14.460938 63.816406 C 14.671875 64.007812 14.851562 64.175781 15.039062 64.324219 C 15.179688 64.449219 15.285156 64.597656 15.476562 64.664062 C 15.578125 64.707031 15.65625 64.808594 15.738281 64.894531 C 15.867188 65.019531 15.875 65.230469 16.066406 65.316406 C 16.226562 65.402344 16.375 65.507812 16.53125 65.609375 C 16.660156 65.675781 16.765625 65.738281 16.796875 65.882812 L 16.820312 65.867188 " fill-opacity="1" fill-rule="evenodd"/></g><g fill="#ffffff" fill-opacity="1"><g transform="translate(12.415338, 57.200108)"><g><path d="M 24.445312 0.167969 C 25.515625 0.167969 26.417969 -0.507812 27.035156 -1.351562 C 26.585938 -8.28125 25.964844 -15.265625 24.839844 -22.136719 C 24.332031 -25.515625 23.769531 -28.953125 22.867188 -32.21875 C 22.585938 -33.289062 22.25 -34.359375 22.023438 -35.429688 C 21.910156 -35.542969 21.796875 -35.65625 21.628906 -35.710938 C 20.671875 -36.386719 18.980469 -36.5 18.304688 -35.261719 C 18.304688 -35.203125 18.25 -35.203125 18.25 -35.148438 C 17.855469 -34.921875 17.519531 -34.527344 17.292969 -34.132812 C 16.671875 -33.007812 17.179688 -31.9375 17.460938 -30.867188 C 18.023438 -28.839844 18.363281 -26.8125 18.757812 -24.785156 C 19.265625 -21.910156 19.882812 -18.925781 20.164062 -16.109375 L 19.265625 -17.855469 C 19.265625 -18.023438 19.265625 -18.195312 19.152344 -18.417969 C 18.023438 -20.726562 16.839844 -22.980469 15.546875 -25.179688 C 14.027344 -27.9375 12.449219 -30.640625 10.53125 -33.175781 C 9.464844 -34.585938 6.253906 -37.90625 4.507812 -35.597656 C 4.222656 -35.203125 4.054688 -34.753906 4.054688 -34.304688 C 3.660156 -34.246094 3.265625 -34.023438 2.984375 -33.796875 C 2.816406 -31.375 2.929688 -28.894531 2.984375 -26.417969 C 3.097656 -22.585938 3.15625 -18.699219 3.324219 -14.871094 C 3.492188 -10.140625 3.660156 -5.40625 3.941406 -0.675781 C 4.335938 -0.167969 4.84375 0.226562 5.519531 0.394531 C 6.757812 0.789062 8.054688 0.339844 8.730469 -0.789062 C 11.039062 -1.125 10.421875 -4.394531 10.363281 -6.140625 C 10.308594 -8.394531 10.25 -10.644531 10.140625 -12.898438 C 10.140625 -16.730469 10.195312 -20.558594 10.140625 -24.390625 C 10.421875 -23.996094 10.703125 -23.542969 11.039062 -23.152344 L 20.839844 -5.632812 L 21.179688 -3.71875 C 21.460938 -2.253906 21.796875 -0.507812 23.320312 0.167969 C 23.65625 0.339844 24.109375 0.394531 24.445312 0.167969 Z M 27.601562 -1.914062 C 27.65625 -2.703125 27.601562 -3.941406 27.542969 -4.335938 C 27.601562 -14.308594 26.359375 -24.277344 24.332031 -34.078125 C 24.21875 -34.640625 23.542969 -34.640625 23.261719 -34.304688 C 23.039062 -34.078125 23.039062 -33.851562 23.09375 -33.683594 C 25.402344 -23.207031 26.644531 -12.503906 27.375 -1.746094 C 27.429688 -1.859375 27.488281 -1.914062 27.601562 -1.914062 Z M 2.929688 -6.027344 C 3.15625 -3.605469 3.378906 -3.71875 3.378906 -3.71875 L 2.871094 -16.390625 C 2.761719 -20.335938 2.648438 -24.277344 2.589844 -28.164062 C 2.535156 -29.964844 2.476562 -31.769531 2.535156 -33.570312 C 2.140625 -32.667969 2.027344 -31.597656 2.085938 -30.640625 C 2.140625 -26.585938 2.195312 -22.53125 2.367188 -18.53125 C 2.535156 -14.476562 2.589844 -10.027344 2.929688 -6.027344 Z M 9.238281 -8.785156 C 9.292969 -8.109375 9.351562 -7.492188 9.351562 -6.816406 C 9.464844 -5.6875 9.519531 -4.5625 9.574219 -3.492188 C 9.632812 -2.984375 9.464844 -2.140625 9.125 -1.578125 C 9.464844 -2.984375 8.898438 -4.28125 8.898438 -5.183594 L 8.957031 -8.5625 C 9.011719 -8.617188 9.070312 -8.617188 9.070312 -8.617188 Z M 9.238281 -8.785156 "/></g></g></g><g fill="#ffffff" fill-opacity="1"><g transform="translate(41.126726, 57.200108)"><g><path d="M 14.363281 -35.9375 C 13.742188 -35.089844 14.082031 -34.359375 14.8125 -33.910156 C 14.871094 -32.050781 18.082031 -32.105469 19.320312 -32.558594 C 21.347656 -33.234375 22.699219 -35.65625 21.515625 -37.570312 C 21.179688 -38.078125 20.558594 -37.964844 20.277344 -37.625 C 19.546875 -38.078125 18.589844 -38.191406 17.6875 -38.019531 C 16.503906 -37.851562 15.039062 -36.949219 14.363281 -35.9375 Z M 19.828125 -34.023438 C 18.8125 -33.121094 17.011719 -32.839844 15.828125 -33.570312 C 15.941406 -33.628906 15.996094 -33.796875 15.996094 -33.964844 C 17.125 -33.628906 18.699219 -33.570312 19.828125 -34.023438 Z M 24.558594 -9.800781 C 25.007812 -13.238281 24.445312 -16.839844 24.21875 -20.277344 C 23.996094 -23.828125 23.601562 -27.429688 23.320312 -31.035156 C 23.320312 -31.09375 22.867188 -30.921875 22.867188 -30.867188 C 23.207031 -23.996094 23.714844 -17.800781 23.769531 -12.957031 C 23.769531 -9.292969 23.714844 -6.421875 22.082031 -4.507812 C 21.574219 -3.941406 20.898438 -3.4375 20.277344 -3.042969 C 20.671875 -3.324219 22.136719 -4.5625 22.867188 -7.605469 C 23.65625 -10.757812 22.53125 -27.769531 22.304688 -31.769531 C 22.082031 -31.882812 21.742188 -31.769531 21.6875 -31.488281 C 21.628906 -31.542969 21.628906 -31.597656 21.574219 -31.65625 L 21.574219 -31.769531 C 20.503906 -31.597656 19.433594 -31.429688 18.363281 -31.316406 C 18.363281 -31.316406 18.363281 -31.316406 18.304688 -31.316406 L 18.195312 -31.316406 C 15.660156 -31.09375 13.125 -31.207031 10.703125 -31.882812 C 10.589844 -31.824219 10.53125 -31.769531 10.476562 -31.65625 C 10.308594 -31.375 10.308594 -31.035156 10.363281 -30.699219 C 9.914062 -30.527344 9.574219 -30.246094 9.464844 -29.742188 C 9.292969 -29.066406 9.40625 -28.21875 9.40625 -27.601562 C 9.464844 -26.8125 9.40625 -25.964844 9.519531 -25.179688 C 9.6875 -23.828125 11.886719 -23.996094 12.84375 -23.9375 C 14.082031 -23.882812 15.320312 -23.828125 16.503906 -23.828125 L 16.671875 -22.417969 C 16.898438 -20.335938 17.011719 -18.25 17.066406 -16.109375 C 17.125 -14.195312 17.179688 -12.222656 16.730469 -10.308594 C 16.449219 -9.070312 15.601562 -7.660156 14.136719 -7.492188 C 13.125 -7.324219 12.167969 -7.71875 11.320312 -8.335938 C 9.96875 -10.082031 8.84375 -11.941406 8.28125 -14.25 C 7.773438 -16.222656 7.605469 -18.304688 7.660156 -20.390625 C 7.660156 -20.445312 7.605469 -20.503906 7.605469 -20.558594 C 7.773438 -21.628906 7.660156 -22.644531 6.929688 -23.488281 C 6.082031 -24.558594 4.957031 -24.726562 3.71875 -24.21875 C 0.902344 -22.980469 1.40625 -18.25 1.800781 -15.882812 C 1.859375 -15.714844 1.972656 -15.546875 2.085938 -15.433594 C 2.253906 -14.027344 2.589844 -12.617188 3.042969 -11.265625 C 3.773438 -8.898438 5.011719 -6.703125 6.648438 -4.84375 C 8.167969 -2.984375 10.363281 -1.351562 12.730469 -0.84375 C 13.292969 -0.730469 13.855469 -0.675781 14.363281 -0.730469 C 15.265625 -0.5625 16.109375 -0.5625 16.953125 -0.730469 C 18.53125 -0.789062 19.996094 -1.464844 21.292969 -2.589844 C 23.320312 -4.335938 24.21875 -7.210938 24.558594 -9.800781 Z M 16.277344 -25.460938 L 16.277344 -25.402344 C 14.925781 -25.347656 13.519531 -25.347656 12.109375 -25.347656 C 11.714844 -25.347656 10.703125 -25.179688 10.644531 -25.796875 C 10.644531 -26.25 10.589844 -26.644531 10.589844 -27.09375 C 10.871094 -26.417969 11.601562 -26.078125 12.335938 -25.855469 C 13.574219 -25.515625 14.925781 -25.460938 16.277344 -25.460938 Z M 13.914062 -4.84375 C 15.488281 -4.730469 16.953125 -5.351562 18.082031 -6.363281 C 17.460938 -5.6875 16.839844 -5.070312 16.054688 -4.617188 C 14.644531 -3.773438 13.238281 -4.335938 12.054688 -5.238281 C 12.617188 -5.011719 13.238281 -4.84375 13.914062 -4.84375 Z M 13.914062 -4.84375 "/></g></g></g></svg>